<svg width="52" height="52" viewBox="0 0 52 52" fill="none" xmlns="http://www.w3.org/2000/svg">
<path d="M26 13C17.7482 13 10.6194 17.7417 7.14675 24.635C10.8355 19.565 16.809 16.25 23.5625 16.25C30.94 16.25 37.3815 20.1987 40.9354 26.0813L44.6566 24.2223C41.106 17.5516 34.086 13 26 13ZM26 19.5C23.1394 19.5003 20.3416 20.3394 17.953 21.9135C15.5644 23.4877 13.6898 25.7276 12.5612 28.3563C15.0686 24.96 19.0807 22.75 23.6129 22.75C28.4245 22.75 32.6527 25.2379 35.1146 28.9965L38.8473 27.1229C37.5887 24.8148 35.7313 22.8886 33.4704 21.5472C31.2096 20.2057 28.6289 19.4985 26 19.5ZM1.625 24.9909V28.6276C10.1124 32.8689 25.2688 40.4544 25.2688 40.4544L26 40.8151L50.375 28.6276V24.9974L26 37.1849C12.4979 30.4314 5.382 26.8759 1.625 24.9909ZM25.9496 26C22.3811 26 19.3927 28.3303 18.3121 31.5478C18.9873 30.8233 19.8043 30.2455 20.7123 29.8502C21.6203 29.455 22.5998 29.2506 23.5901 29.25C24.6675 29.2522 25.7306 29.4956 26.7016 29.9624C27.6726 30.4292 28.5267 31.1075 29.2012 31.9475L32.9339 30.082C31.5347 27.6575 28.951 26 25.9496 26Z" fill="#FF9900"/>
</svg>
