<svg width="52" height="52" viewBox="0 0 52 52" fill="none" xmlns="http://www.w3.org/2000/svg">
<g clip-path="url(#clip0)">
<path d="M32.5255 16.1098L42.5176 9.78826L32.7294 0L26.4079 14.0706L22.7373 3.05881L12.949 9.58429L21.1059 16.1098H2.54904V29.1608H5.81178V52H46.1882V29.1608H49.451V16.1098H32.5255ZM33.5549 4.28614L38.6767 9.40793L28.229 16.0332L33.5549 4.28614ZM21.4289 6.87206L24.3209 15.5481L17.0908 9.76408L21.4289 6.87206ZM22.7373 48.7373H9.07452V28.1388H22.7373V48.7373ZM22.7373 25.898H5.81178V19.3726H22.7373V25.898ZM42.9255 48.7373H29.2627V28.1388H42.9255V48.7373ZM46.1882 25.898H29.2627V19.3726H46.1882V25.898Z" fill="#FF9900"/>
<rect x="2" width="50" height="17" fill="white"/>
<path d="M26 1C20.922 1 16.535 3.918 14.398 8.16C16.668 5.04 20.344 3 24.5 3C29.04 3 33.004 5.43 35.191 9.05L37.481 7.906C35.296 3.801 30.976 1 26 1ZM26 5C24.2396 5.00018 22.5179 5.51657 21.048 6.48526C19.5781 7.45394 18.4245 8.83239 17.73 10.45C19.273 8.36 21.742 7 24.531 7C27.492 7 30.094 8.531 31.609 10.844L33.906 9.691C33.1315 8.27064 31.9885 7.08532 30.5972 6.2598C29.2059 5.43427 27.6178 4.99907 26 5ZM11 8.379V10.617C16.223 13.227 25.55 17.895 25.55 17.895L26 18.117L41 10.617V8.383L26 15.883C17.691 11.727 13.312 9.539 11 8.379ZM25.969 9C23.773 9 21.934 10.434 21.269 12.414C21.6845 11.9682 22.1873 11.6126 22.746 11.3694C23.3048 11.1261 23.9076 11.0004 24.517 11C25.18 11.0013 25.8342 11.1511 26.4318 11.4384C27.0293 11.7256 27.5549 12.1431 27.97 12.66L30.267 11.512C29.406 10.02 27.816 9 25.969 9Z" fill="#FF9900"/>
</g>
<defs>
<clipPath id="clip0">
<rect width="52" height="52" fill="white"/>
</clipPath>
</defs>
</svg>
